<svg viewBox="0 0 33 30" fill="none" xmlns="http://www.w3.org/2000/svg">
<path fill-rule="evenodd" clip-rule="evenodd" d="M26.0161 9.69936C26.6348 7.26148 27.4126 2.74068 24.6707 1.20799C21.9417 -0.318025 18.3904 2.60609 16.5152 4.36129C14.6454 2.62358 10.9944 -0.288034 8.25491 1.24953C5.52696 2.78066 6.3682 7.2265 7.00067 9.67967C4.45596 10.3804 0.09375 11.8898 0.09375 14.9736C0.09375 18.0487 4.45143 19.6909 6.98107 20.391C6.34626 22.8577 5.54714 27.24 8.27858 28.7678C11.0283 30.3051 14.668 27.4627 16.5606 25.6883C18.4479 27.4539 21.965 30.3148 24.6946 28.7828C27.4327 27.246 26.7196 22.7857 26.087 20.3184C28.5392 19.6167 32.9062 18.0103 32.9062 14.9736C32.9062 11.9195 28.5206 10.3978 26.0161 9.69936ZM25.7052 19.0108C25.2899 17.7361 24.7294 16.3806 24.0437 14.9804C24.6982 13.6132 25.237 12.2752 25.6407 11.0088C27.4768 11.5249 31.5046 12.7045 31.5046 14.9736C31.5046 17.2641 27.6394 18.4548 25.7052 19.0108ZM23.9922 27.6066C21.9556 28.7495 18.9304 26.0136 17.5367 24.7135C18.4613 23.7329 19.3853 22.593 20.2871 21.3272C21.8735 21.1908 23.372 20.9677 24.7311 20.6631C25.1763 22.4084 26.0377 26.4585 23.9922 27.6066ZM8.97896 27.5903C6.94219 26.4516 7.87313 22.541 8.34015 20.7239C9.68412 21.0122 11.1719 21.2196 12.762 21.3446C13.6697 22.5832 14.6205 23.7217 15.5786 24.7187C14.3949 25.829 11.0252 28.7342 8.97896 27.5903ZM1.49538 14.9736C1.49538 12.6747 5.49914 11.5036 7.37708 10.9888C7.78775 12.2837 8.32635 13.6376 8.97635 15.0068C8.31793 16.3963 7.77162 17.7717 7.35718 19.0819C5.56654 18.5849 1.49538 17.274 1.49538 14.9736ZM8.95717 2.42575C11.0023 1.27799 14.1755 4.07325 15.533 5.33139C14.5798 6.32387 13.6378 7.45378 12.7378 8.68523C11.1947 8.82392 9.71738 9.04661 8.35932 9.34498C7.8498 7.3664 6.91429 3.57227 8.95717 2.42575ZM21.2899 10.1625C22.3368 10.2905 23.3399 10.4609 24.2817 10.6694C23.999 11.5481 23.6466 12.467 23.2315 13.4089C22.6298 12.302 21.984 11.2174 21.2899 10.1625ZM16.5156 6.30261C17.1622 6.98168 17.8097 7.74001 18.4467 8.56273C17.1546 8.50345 15.8605 8.50323 14.5684 8.56186C15.206 7.74677 15.8591 6.98957 16.5156 6.30261ZM9.78055 13.4079C9.37235 12.4693 9.0231 11.5464 8.7379 10.6551C9.6741 10.452 10.6725 10.2859 11.7127 10.1599C11.0166 11.2126 10.3718 12.2968 9.78055 13.4079ZM11.7425 19.8844C10.668 19.7681 9.6545 19.6105 8.71858 19.413C9.00829 18.506 9.36523 17.5632 9.78214 16.6043C10.3816 17.727 11.0362 18.8218 11.7425 19.8844ZM16.5545 23.7407C15.8901 23.0456 15.2274 22.2768 14.5802 21.45C15.8796 21.4994 17.1815 21.4995 18.4808 21.4433C17.8418 22.2852 17.1966 23.0551 16.5545 23.7407ZM23.2448 16.5555C23.6834 17.5248 24.0531 18.4625 24.3468 19.3541C23.3953 19.5647 22.3682 19.7342 21.2859 19.8601C21.9852 18.7851 22.6413 17.6836 23.2448 16.5555ZM19.5049 20.0248C17.5173 20.1625 15.5174 20.161 13.5292 20.0361C12.3994 18.436 11.3937 16.7533 10.5256 15.0063C11.3896 13.263 12.3879 11.5836 13.5123 9.98603C15.502 9.84023 17.5038 9.8398 19.4935 9.98691C20.6082 11.5843 21.6051 13.2594 22.489 14.987C21.6156 16.7294 20.612 18.4123 19.5049 20.0248ZM23.9706 2.38534C26.0163 3.52934 25.1057 7.59231 24.6588 9.35909C23.2975 9.05448 21.8192 8.82786 20.2716 8.68698C19.3699 7.44223 18.4357 6.31035 17.4979 5.33069C18.8729 4.04545 21.9448 1.25253 23.9706 2.38534Z" fill="#53C1DE"/>
</svg>
