<svg viewBox="0 0 200 200" fill="none" xmlns="http://www.w3.org/2000/svg"><path d="M0 180V20C0 8.954 8.954 0 20 0h160c11.046 0 20 8.954 20 20v160c0 11.046-8.954 20-20 20H20c-11.046 0-20-8.954-20-20z" fill="#F1545B"/><path d="M37.2 44.6c1.8-.3 4.4-.7 5.8-.9 1.4-.3 7.2-.5 13-.5 5.8-.1 13 .4 16 1.1 3 .7 7.5 2.4 10 3.8 2.4 1.3 5.7 4.2 7.2 6.4 1.7 2.4 3.2 6.4 3.8 10 .8 4.3.8 7.6 0 11.5-.6 3-1.8 7-2.8 8.9-.9 1.9-3.4 4.8-9.1 9.6l9 15.2c4.9 8.4 8.7 15.7 8.4 16.3-.3.5-4 1-8.3 1-4.7 0-8.3-.5-9.3-1.2-.9-.7-4.8-6.9-15.7-26.3l-4.9-.8c-2.6-.4-5.8-.7-7.1-.7-2.196 0-2.2.2-2.698 28.364l-.002.136h-16l-.6-81.4 3.3-.5z" fill="#fff"/><path d="M122 47.5c1.9-1 5.5-2.4 8-3.1 2.5-.7 7.9-1.3 12-1.3 4.1-.1 9.9.6 12.7 1.4 4.4 1.2 5.5 2.1 6.7 4.7.8 1.8 1.8 5.5 2.2 8.3.6 4.2.5 4.9-.7 4.3-.8-.4-3.9-1.4-6.9-2.4-3.9-1.2-7.5-1.5-12.5-1.2-4.1.3-8.7 1.4-11 2.6-2.2 1.1-5.3 3.3-6.8 4.8-1.5 1.6-3.5 4.5-4.4 6.4-.9 1.9-1.9 6.9-2.1 11-.3 4.2 0 9.7.7 12.5.7 2.7 2.2 6.6 3.5 8.5 1.3 2 4.7 4.8 7.7 6.4 4.7 2.6 6.5 3 13.4 3 4.4.1 10.5-.1 19-.9l1.3 6c.7 3.3 1.1 9.1.9 13-.2 4.7-1 8.2-2.3 10.5-1.1 1.9-3.8 4.9-6 6.6-2.4 1.9-6.2 3.5-9.9 4.4-3.8.8-8.7 1-13.5.6-4.1-.3-12.9-1.5-19.5-2.7-6.6-1.1-17.2-2.7-23.5-3.5-6.3-.7-16.2-1.7-22-2-5.8-.4-12.6-.4-15.3 0-2.6.3-5.4 1.3-6.2 2.1-.8.8-1.5 2.6-1.5 4 0 1.5.9 3.1 2.2 4 1.3.8 4.1 1.5 6.3 1.5s7.1-.6 11-1.4c5.5-1.1 7.6-1.1 10-.2 2 .8 3.3 2.2 3.8 4.2.6 2.2.3 3.5-1.1 5.4-1.1 1.5-3.5 2.8-5.8 3.3-2.2.5-7.9.7-12.9.5-7.1-.3-10.2-1-14.8-3.1-4.1-1.9-6.3-3.8-7.9-6.5-1.5-2.5-2.2-5.3-2.2-8.7 0-3.2.7-6.2 1.9-8.4 1.1-1.9 3.8-4.3 6-5.5 3.3-1.8 6.2-2.2 17-2.4 7.6-.2 19.2.3 28 1.3 8.2.9 20.6 2.5 27.5 3.6 7.8 1.3 15.7 1.9 21 1.7 6.6-.2 9.1-.8 11.2-2.3 1.5-1.1 3.1-2.9 3.6-4 .6-1.2.6-2.7.1-3.8-.8-1.4-2.3-1.7-9.6-1.7-6.2 0-10.9-.6-15.8-2.1-6-1.8-7.9-3.1-13.1-8.3-4.4-4.4-6.7-7.8-8.4-12.1-1.6-4.4-2.4-8.9-2.8-16.5-.3-7.8 0-12.2 1.2-17 .9-3.6 3.1-8.9 4.9-11.9 1.8-2.9 5-6.8 7.2-8.6 2.2-1.8 5.6-4.1 7.5-5z" fill="#fff"/><path d="M50.8 71.2c-.1-6.5.2-12.2.7-12.5.5-.4 3.7-.7 7.2-.7 3.4 0 7.8.6 9.5 1.3 1.8.8 4.3 2.7 5.6 4.3 1.6 2 2.3 4.2 2.2 7.1 0 2.4-.6 5.5-1.3 6.9-.6 1.5-2.4 3.3-4 4-1.5.8-4.4 1.7-6.4 2-2.1.4-5.9.4-13.3-.6l-.2-11.8z" fill="#F1545B"/></svg>
