<svg viewBox="0 0 38 34" fill="none" xmlns="http://www.w3.org/2000/svg">
<path d="M22.0242 1.96626C20.6419 -0.326401 17.3185 -0.326401 15.9378 1.96626L10.9313 10.54C14.7561 12.4494 18.0149 15.326 20.3842 18.8843C22.7534 22.4426 24.1507 26.5588 24.4372 30.8241H20.9206C20.6345 27.1682 19.3989 23.6504 17.3358 20.6187C15.2727 17.587 12.4538 15.1466 9.158 13.5388L4.52517 21.5505C6.37797 22.3816 7.9921 23.6651 9.21915 25.2831C10.4462 26.901 11.2468 28.8016 11.5473 30.8098H3.47384C3.37792 30.8032 3.28516 30.7728 3.20397 30.7213C3.12278 30.6698 3.05572 30.5989 3.00887 30.5149C2.96202 30.431 2.93685 30.3366 2.93565 30.2405C2.93445 30.1444 2.95726 30.0494 3.002 29.9643L5.23925 26.1612C4.4817 25.529 3.61589 25.0392 2.68375 24.7156L0.46867 28.5188C0.238132 28.9142 0.0884581 29.3514 0.0283426 29.8052C-0.0317729 30.2589 -0.00113181 30.72 0.118486 31.1618C0.238104 31.6036 0.444314 32.0172 0.725138 32.3787C1.00596 32.7401 1.3558 33.0421 1.75434 33.2672C2.27946 33.5628 2.87124 33.7197 3.47384 33.7232H14.5303C14.7355 31.1895 14.2829 28.6458 13.2163 26.3384C12.1497 24.031 10.5053 22.0382 8.44234 20.553L10.1998 17.5098C12.8032 19.2976 14.8953 21.7334 16.2697 24.5766C17.6442 27.4199 18.2534 30.5725 18.0373 33.7232H27.4027C27.6206 28.9507 26.5823 24.2047 24.3915 19.9592C22.2006 15.7137 18.9341 12.1175 14.9182 9.52985L18.4712 3.44193C18.5503 3.30944 18.6784 3.21351 18.8279 3.17497C18.9773 3.13643 19.1359 3.1584 19.2692 3.2361C19.6729 3.45776 34.7067 29.6904 34.9885 29.9944C35.0382 30.0834 35.0635 30.1839 35.0619 30.2858C35.0602 30.3876 35.0317 30.4873 34.9791 30.5746C34.9266 30.6618 34.8519 30.7337 34.7626 30.7828C34.6733 30.8319 34.5726 30.8565 34.4707 30.8542H30.8497C30.8956 31.8232 30.8956 32.7906 30.8497 33.7533H34.4866C35.1015 33.7566 35.7064 33.5976 36.2401 33.2923C36.7739 32.987 37.2176 32.5462 37.5264 32.0144C37.8351 31.4826 37.998 30.8788 37.9986 30.2639C37.9992 29.649 37.8375 29.0448 37.5297 28.5124L22.0242 1.96626Z" fill="#362D59"/>
</svg>
