<svg viewBox="0 0 44 27" fill="none" xmlns="http://www.w3.org/2000/svg">
<path d="M21.9989 0.166687C16.1325 0.166687 12.4661 3.09993 10.9997 8.96678C13.1997 6.03308 15.7665 4.93308 18.6997 5.66669C20.3733 6.08469 21.5694 7.29946 22.8935 8.6432C25.0503 10.8324 27.5468 13.3664 32.9995 13.3664C38.8658 13.3664 42.5323 10.4332 43.9991 4.56632C41.7991 7.49993 39.2322 8.59993 36.2991 7.86632C34.6255 7.44841 33.4295 6.23355 32.1053 4.8899C29.9481 2.70063 27.452 0.166687 21.9989 0.166687ZM10.9997 13.3664C5.13324 13.3664 1.46682 16.2996 0 22.1664C2.20002 19.2328 4.76644 18.1328 7.69965 18.8664C9.37356 19.2852 10.5693 20.4992 11.8934 21.8429C14.0502 24.0321 16.5471 26.566 21.9994 26.566C27.8662 26.566 31.5326 23.6328 32.9995 17.766C30.7995 20.6997 28.2326 21.7997 25.2994 21.066C23.6259 20.6481 22.4298 19.4333 21.1056 18.09C18.9489 15.9004 16.4523 13.3664 10.9997 13.3664Z" fill="#38BDF8"/>
</svg>
